PathFileType	4	(X/Y/Z)	C:\Users\Owen\Repositories\CapacitiveSensingKinematics\CSOptimalControl\OutputData\FilteredlIMUGyros.trc
DataRate	CameraRate	NumFrames	NumMarkers	Units	OrigDataRate	OrigDataStartFrame	OrigNumFrames
100	100	16	8	m	100	2646	7057
Frame#	Time	/bodyset/torso/torso_imu_offset			/bodyset/pelvis/pelvis_imu_offset			/bodyset/tibia_r/tibia_r_imu_offset			/bodyset/femur_r/femur_r_imu_offset			/bodyset/tibia_l/tibia_l_imu_offset			/bodyset/femur_l/femur_l_imu_offset			/bodyset/toes_r/toes_r_imu_offset			/bodyset/toes_l/toes_l_imu_offset			
		X1	Y1	Z1	X2	Y2	Z2	X3	Y3	Z3	X4	Y4	Z4	X5	Y5	Z5	X6	Y6	Z6	X7	Y7	Z7	X8	Y8	Z8	

2647	26.46	0.8644096392478657	-0.2125399143357394	0.3328689880717163	0.7011101478611294	-0.0246598698033762	0.04817900894999814	-2.250524973945729	-0.6348934784225072	-1.006824724637417	0.7326298181511869	-0.4576974789424714	-0.7069878772900099	0.8238102058173457	0.6121774201786371	0.7878993519206026	0.6198556103996794	-0.419460351269797	-2.816499693207235	-0.1157302889516931	-0.08497333043429223	0.02498488942244188	1.290003595786379	-3.124933463707044	2.893098479105436	
2648	26.47	0.9466538977680177	-0.2380816239027683	0.3362617395109446	0.6393966179711692	-0.1161214048969478	-0.08524184827821354	-1.667379992872909	-0.4259850810575886	-0.9535466850034159	0.8350476958740407	-0.4072168198483233	-0.6550081120610739	0.6395110350341188	0.4274201634504021	0.5856800616992245	0.5925158796845731	-0.6788130139991871	-2.658992353254685	-0.1552574930820494	-0.1180359261136682	0.0379635249811917	1.088117456947673	-1.475529164988189	2.464187594014879	
2649	26.48	1.015597851559216	-0.2650084371739349	0.3206615729983197	0.5672934391597123	-0.2036609924249259	-0.204884380952093	-0.8454118587436965	-0.2131662959767792	-0.8579678204366975	0.7672276914605863	-0.384691204844174	-0.6783746149419625	0.5765221609561761	0.2126880958193346	0.4475772883369393	0.5420351749594807	-0.886594414775946	-2.470722534133084	-0.1630962126831769	-0.143879747979639	0.04357432705181474	0.8268754015260403	0.2143502820917568	1.890927728031793	
2650	26.49	1.063748201704687	-0.2910563007860422	0.2924913994139011	0.495145736419822	-0.2690976961257368	-0.3042885802638063	0.01170150850603413	-0.04275691734465746	-0.7413866936359452	0.547133564208957	-0.3915802430913153	-0.7265235390297791	0.592259305498787	-0.03976928767406569	0.3333972267803156	0.464886610514852	-1.01786084892972	-2.271792368178165	-0.1446673064637069	-0.1636641949237254	0.04095269273079612	0.5276494017523308	1.636900384075116	1.28084672899359	
2651	26.5	1.088924728661787	-0.313989344733178	0.259309754358456	0.4347430498803365	-0.3026302264449262	-0.3800458823247428	0.7132202167737361	0.05496095493313552	-0.6315819454622634	0.2288912974581196	-0.4219794296457063	-0.7564554575832871	0.6513994808511363	-0.3213334814149925	0.1796239259197854	0.35255389402465	-1.058700109460969	-2.080131055546943	-0.1112034438927056	-0.1798713308889431	0.03014999181075653	0.2319251799097653	2.576471974747705	0.7308182011409988	
2652	26.51	1.093487394938443	-0.3317323778706749	0.2274434393691477	0.3947785972195293	-0.3019647252909233	-0.4326937673263301	1.119584641743754	0.07197976355451745	-0.5510436667641515	-0.112543995267702	-0.4641434055621374	-0.7496797419086678	0.7404159142872559	-0.5984033400221335	-0.0736583745329365	0.1943814743065366	-1.008543822422362	-1.910314967812861	-0.07534426715245786	-0.1948170931087497	0.01166452013679814	-0.001151087593179209	3.013619438785414	0.2806709068048342	
2653	26.52	1.082286239337462	-0.3422338557535725	0.200976346361043	0.3769288519633336	-0.2707491337398564	-0.4662280473328337	1.156627400215738	0.01892743495251713	-0.5108923279576424	-0.4035397780833888	-0.5033873834019286	-0.7127441739329283	0.8397007584475435	-0.8295101906089666	-0.4471590585544928	-0.01494391081918237	-0.8809520173157807	-1.772591038698377	-0.04738892595486938	-0.2098787204253726	-0.01353565342592245	-0.1246792890982013	3.095095077340534	-0.08769828768363322	
2654	26.53	1.060581862696775	-0.3436758357723667	0.181968747820811	0.3749646221107664	-0.2170347737310078	-0.4855910646762013	0.8253257723618859	-0.08091771023710961	-0.5115945738089603	-0.5946181377402943	-0.5270110905805858	-0.6661245294330128	0.8999124472784775	-0.9972018439992651	-0.9062364182068338	-0.2681773221339028	-0.7003961837523474	-1.671455196908493	-0.03284054930692233	-0.2252875727939703	-0.0436588865639236	-0.1306794234260172	3.032591190398237	-0.4181553022790992	
2655	26.54	1.032798740035015	-0.3350557744828945	0.171089708275433	0.3775426414566692	-0.1509809767041029	-0.4940677156716313	0.2124223749382985	-0.1957089269489406	-0.5455108937287145	-0.6746456038331238	-0.5297373976873802	-0.6294660419507496	0.8603535610705062	-1.124340899573441	-1.378159796829598	-0.5434662651619964	-0.4944776696478978	-1.604134078105845	-0.03219735487027434	-0.2402888546748374	-0.07584920865233198	-0.05166199824848149	3.006700358126176	-0.7451658848265795	
2656	26.55	1.002160873565731	-0.3167985788093585	0.1680267881437785	0.3728378636773224	-0.08206404747912746	-0.4927582586943837	-0.5176665516482053	-0.2915979507744563	-0.5975820343367337	-0.6696194607355777	-0.515952788992354	-0.6112436820149774	0.6923635815480107	-1.258465962336656	-1.791016507833591	-0.8088949757372356	-0.2860320337165397	-1.560362834383985	-0.04161104159745982	-0.2529400105416878	-0.1062816278009174	0.06306094185010519	3.115976626209593	-1.075629800116091	
2657	26.56	0.9707540462274069	-0.2909953984890764	0.1715027174216401	0.3525288591857036	-0.01707641608749618	-0.4820886230833354	-1.165657563721578	-0.3437455477689839	-0.6471788668930418	-0.6265398822362018	-0.4965284421865325	-0.6075115191983173	0.4224182507846398	-1.437749729586096	-2.108042776611245	-1.031932541582232	-0.08986853663889707	-1.524617641971173	-0.05446864289279865	-0.2598154623765903	-0.1305791371897006	0.1795741512260215	3.373340540225287	-1.390142582809281	
2658	26.57	0.9396615827662045	-0.2611730148115189	0.179293998380685	0.3137215142695008	0.04028142216923655	-0.4634838098448281	-1.561693441738387	-0.3449064204122373	-0.6749721672844329	-0.5912608952947208	-0.4823828635176337	-0.6082079447817001	0.1147058275329103	-1.665162398137059	-2.337306125425406	-1.191132482697004	0.08585156092651787	-1.480385367730584	-0.06460550905199287	-0.2571458902185242	-0.1450174498604578	0.2967690036572877	3.731426304761111	-1.655368353760113	
2659	26.58	0.909023845862023	-0.2315740603425835	0.1886475146621491	0.2586421914606921	0.08849276005730813	-0.439578537985801	-1.618744684127903	-0.3049689709897614	-0.6713441620571806	-0.5915955298403813	-0.4794220900382983	-0.6048183138076532	-0.1653464719708868	-1.907398420811214	-2.516999345025686	-1.284835849950051	0.2363453410162365	-1.414909388841967	-0.06836754318800979	-0.2432238684039772	-0.1484786172066152	0.4383088976919268	4.118109646038777	-1.838176524385683	
2660	26.59	0.8780814037348861	-0.2059420818664079	0.1969608380516865	0.1929076291228619	0.12687663595587	-0.4129194020781897	-1.35269692885783	-0.2430145390850748	-0.6395621583405274	-0.6310431287329908	-0.4875606063101672	-0.5943102549356256	-0.3743118930180468	-2.116559201673624	-2.690862739441932	-1.32901202909897	0.3573118409108273	-1.322296001058863	-0.06422961079171288	-0.219616235513589	-0.1432850661448241	0.6275381986151544	4.469116559868329	-1.916269152321298	
2661	26.6	0.8454514067869046	-0.1863350093048834	0.2024101441708223	0.1236423293208845	0.1545681063782413	-0.3845952087370455	-0.8688952644099234	-0.1781973833170179	-0.5926178260750354	-0.691372524046358	-0.5026493810872368	-0.578917449876202	-0.4918276282050838	-2.258750948374934	-2.887395003277087	-1.344418078923312	0.4443490116114616	-1.203676714735271	-0.05223556421611586	-0.1899349787574231	-0.133703490331483	0.8641912238821694	4.747797602200836	-1.884149671845095	
2662	26.61	0.809742894086816	-0.1728253205532428	0.2042742748691054	0.05823698472642345	0.1704206878386594	-0.3540791359701129	-0.3252109212388339	-0.1241765959298633	-0.5477919919871925	-0.7402659338812095	-0.5189209921543585	-0.5639071103917018	-0.5132598084476721	-2.330775700951063	-3.110385502178472	-1.343422836236357	0.495111620947277	-1.065443106032727	-0.03430037901618851	-0.1578040565363867	-0.1237115533595652	1.118527138504946	4.947245427843329	-1.754891246111739	
